<svg xmlns="http://www.w3.org/2000/svg" viewBox="0 0 304.64 304.64"><title>phone</title><circle cx="152.32" cy="152.32" r="152.32" style="fill:#545554"/><path d="M130.7405,213.905l-20.896-31.8045L88.9485,150.296c-8.9414-13.6091,13.36-39.4761,3.0194-52.4484-9.5332-11.96-9.83-21.8845-26.0956-11.1978s-30.2462,34.3385-21.3047,47.9477l41.4818,63.1368,41.4818,63.1368c8.9414,13.6092,36.2,10.1664,52.4651-.52s7.2744-14.899.0817-28.3966C172.2763,217.3141,139.6819,227.5142,130.7405,213.905Z" style="fill:#ffe8d5"/><path d="M170.5666,181.4505l4.307-3.1935c1.3132-43.8828-40.83-55.0674-40.83-55.0674l-4.307,3.1934S173.9433,138.4215,170.5666,181.4505Z" style="fill:#ffe8d5"/><path d="M201.6031,179.1521l6.3022-4.6728c1.9215-64.2116-59.7451-80.5776-59.7451-80.5776l-6.3021,4.6728S206.544,116.19,201.6031,179.1521Z" style="fill:#ffe8d5"/><path d="M235.7709,178.0037l8.8028-6.5269c2.6839-89.69-83.4509-112.5495-83.4509-112.5495L152.32,65.4542S242.6722,90.0591,235.7709,178.0037Z" style="fill:#ffe8d5"/></svg>