<svg xmlns="http://www.w3.org/2000/svg" viewBox="0 0 304.64 304.64">
  <circle cx="152.32" cy="152.32" r="152.32" fill="#545554"/>
  <path d="M231.72 76.08l-108.96 145.7-13.62 28.97 23.95-21.25L242.04 83.81z" fill="#ffe8d5"/>
  <path d="M119.59 218.07l24.4-32.61c-207.29 29.47-36.17 64.6-36.17 64.6-9.56-18.02-18.34-21.44 11.77-31.99zm104.59-79.84s129.09 15.43-48.83 42.72l-19.25 25.74c16.63-4.92 37.72-11 64.3-18.93 140.98-41.91 3.78-49.53 3.78-49.53zm32.1512-73.5326l-7.5938 10.1546-10.3308-7.7256L246 56.9718a2.56 2.56 0 0 1 3.5833-.517l6.2305 4.6594a2.56 2.56 0 0 1 .5174 3.5832z" fill="#ffe8d5"/>
</svg>
