<svg data-name="Layer 1" xmlns="http://www.w3.org/2000/svg" viewBox="0 0 304.64 304.64">
  <circle cx="152.32" cy="152.32" r="152.32" fill="#545554"/>
  <path d="M114.64 81.62v18.86h10.29v-9.8a6.76 6.76 0 0 1 6.75-6.76h41.11a6.76 6.76 0 0 1 6.75 6.76v9.8h10.29V81.62a6.76 6.76 0 0 0-6.75-6.77H121.4a6.76 6.76 0 0 0-6.76 6.76zM58.08 156v64.1a9.38 9.38 0 0 0 9.36 9.38h171.73a9.38 9.38 0 0 0 9.37-9.38V156l-34.66 9.64a224.72 224.72 0 0 1-119.09.34z" fill="#ffe8d5"/>
  <path d="M96.92 100.48H67.45a9.38 9.38 0 0 0-9.37 9.37v39.07l36.71 10 2.13.56zM199.34 100.48h-92.06v61.44a224.65 224.65 0 0 0 92.06.17zM209.7 100.48v59.2c1.4-.36 2.79-.73 4.18-1.11l34.66-9.64v-39.08a9.38 9.38 0 0 0-9.36-9.38H209.7z" fill="#ffe8d5"/>
</svg>
